<svg width="250" height="250" viewBox="0 0 250 250" fill="none" xmlns="http://www.w3.org/2000/svg">
<rect width="250" height="250" rx="10" fill="#F45D00" fill-opacity="0.7"/>
<rect width="250" height="250" rx="10" fill="#F45D00" fill-opacity="0.7"/>
<path d="M60.2156 151.332C58.9422 151.934 57.7664 152.234 56.6883 152.234C54.7352 152.234 53.6258 151.398 53.3602 149.727C53.2977 149.328 53.2664 148.75 53.2664 147.992V139.684H51.5789V138.242L53.2664 138.055L53.5711 134.867H55.2V138.055H59.2664V139.684H55.2V147.957C55.2 148.918 55.2703 149.531 55.4109 149.797C55.6688 150.281 56.1844 150.523 56.9578 150.523C57.7313 150.523 58.5945 150.285 59.5477 149.809L60.2156 151.332ZM62.4661 145.062C62.4661 143.289 62.5559 142.051 62.7356 141.348C62.9153 140.645 63.1341 140.09 63.3919 139.684C63.6575 139.27 64.013 138.926 64.4583 138.652C65.3489 138.098 66.6653 137.82 68.4075 137.82C70.9231 137.82 72.5403 138.441 73.2591 139.684C73.6888 140.434 73.9348 141.492 73.9973 142.859C74.0208 143.508 74.0325 144.223 74.0325 145.004C74.0325 145.785 74.0052 146.516 73.9505 147.195C73.9036 147.867 73.8059 148.473 73.6575 149.012C73.5091 149.551 73.302 150.023 73.0364 150.43C72.7708 150.828 72.4192 151.164 71.9817 151.438C71.1223 151.969 69.8684 152.234 68.22 152.234C65.7513 152.234 64.1302 151.625 63.3567 150.406C62.8802 149.648 62.6028 148.586 62.5247 147.219C62.4856 146.562 62.4661 145.844 62.4661 145.062ZM65.6536 149.949C65.9348 150.16 66.2864 150.32 66.7083 150.43C67.138 150.531 67.72 150.582 68.4544 150.582C69.1966 150.582 69.8177 150.477 70.3177 150.266C70.8255 150.055 71.2044 149.719 71.4544 149.258C71.7122 148.789 71.8723 148.184 71.9348 147.441C72.0052 146.699 72.0403 145.836 72.0403 144.852C72.0403 143.867 72.0091 143.047 71.9466 142.391C71.8919 141.734 71.7473 141.191 71.513 140.762C71.0442 139.918 70.0013 139.496 68.3841 139.496C66.6731 139.496 65.5598 139.918 65.0442 140.762C64.7864 141.191 64.6223 141.738 64.552 142.402C64.4817 143.066 64.4466 143.789 64.4466 144.57C64.4466 145.352 64.4544 146.016 64.47 146.562C64.4934 147.102 64.5442 147.59 64.6223 148.027C64.7083 148.457 64.8294 148.832 64.9856 149.152C65.1497 149.473 65.3723 149.738 65.6536 149.949ZM87.4392 150.441C85.7908 151.637 84.115 152.234 82.4119 152.234C80.5291 152.234 79.2752 151.543 78.6502 150.16C78.2908 149.379 78.0877 148.555 78.0408 147.688C78.0017 146.812 77.9822 146.047 77.9822 145.391C77.9822 144.727 77.9861 144.059 77.9939 143.387C78.0095 142.715 78.0603 142.094 78.1463 141.523C78.2322 140.953 78.365 140.441 78.5447 139.988C78.7322 139.527 78.9978 139.137 79.3416 138.816C80.0525 138.152 81.2244 137.82 82.8572 137.82C84.4978 137.82 85.9783 138.105 87.2986 138.676V132.055L89.2439 131.867V145.59C89.2439 148.285 89.3181 150.391 89.4666 151.906L87.7205 152.047L87.4392 150.441ZM87.2986 140.281C85.8923 139.812 84.533 139.578 83.2205 139.578C82.2673 139.578 81.6384 139.656 81.3338 139.812C81.0291 139.969 80.7947 140.172 80.6306 140.422C80.4744 140.672 80.3455 141.016 80.2439 141.453C80.0642 142.273 79.9744 143.625 79.9744 145.508V145.766C79.9744 147.523 80.1658 148.738 80.5486 149.41C80.9627 150.121 81.7322 150.477 82.8572 150.477H83.033C84.1111 150.477 85.2595 150.133 86.4783 149.445C86.8142 149.258 87.1033 149.07 87.3455 148.883V148.859C87.3064 148.133 87.2869 147.012 87.2869 145.496L87.2986 140.281ZM104.561 147.055C104.561 148.609 104.635 150.227 104.783 151.906L103.049 152.047L102.756 150.418C101.764 151.215 100.451 151.77 98.8186 152.082C98.2873 152.184 97.8147 152.234 97.4006 152.234C96.9866 152.234 96.6194 152.215 96.2991 152.176C95.9866 152.137 95.6819 152.062 95.385 151.953C95.0959 151.836 94.8264 151.676 94.5764 151.473C94.3264 151.27 94.1077 151 93.9202 150.664C93.5217 149.953 93.3225 149.102 93.3225 148.109C93.3225 147.109 93.3928 146.336 93.5334 145.789C93.6819 145.234 93.9241 144.773 94.26 144.406C94.9241 143.68 96.0413 143.316 97.6116 143.316C99.1819 143.316 100.858 143.613 102.639 144.207V142.684C102.639 140.988 101.94 139.984 100.541 139.672C100.088 139.57 99.5686 139.52 98.9827 139.52C97.6467 139.52 96.26 139.785 94.8225 140.316L94.3889 138.629C94.7873 138.363 95.803 138.125 97.4358 137.914C97.9514 137.852 98.5686 137.82 99.2873 137.82C100.014 137.82 100.725 137.906 101.42 138.078C102.115 138.25 102.694 138.531 103.155 138.922C104.092 139.695 104.561 140.949 104.561 142.684V147.055ZM102.592 145.672C100.764 145.211 99.0764 144.98 97.5295 144.98C96.5764 144.98 95.9436 145.254 95.6311 145.801C95.4202 146.184 95.3147 146.75 95.3147 147.5C95.3147 148.25 95.3538 148.793 95.4319 149.129C95.5178 149.465 95.6545 149.742 95.842 149.961C96.2092 150.375 96.8147 150.582 97.6584 150.582C98.9788 150.582 100.287 150.242 101.584 149.562C101.983 149.359 102.342 149.133 102.662 148.883C102.615 148.039 102.592 146.969 102.592 145.672ZM109.085 155.375C109.655 155.578 110.12 155.68 110.479 155.68C110.846 155.68 111.085 155.668 111.194 155.645C111.311 155.629 111.428 155.59 111.546 155.527C111.819 155.379 112.022 155.137 112.155 154.801C112.483 154.004 112.768 153.129 113.01 152.176L107.632 138.055H109.8L113.432 148.332L113.983 150.137L114.487 148.32L117.698 138.055H119.737L113.854 155.305C113.425 156.648 112.432 157.32 110.878 157.32C109.893 157.32 109.12 157.18 108.557 156.898L109.085 155.375ZM25.3692 179.586C26.9552 180.227 28.5528 180.547 30.1622 180.547C31.3731 180.547 32.2169 180.164 32.6934 179.398C33.1309 178.711 33.3497 177.578 33.3497 176C33.3497 174.609 33.1231 173.625 32.67 173.047C32.1934 172.445 31.3692 172.145 30.1973 172.145C29.6427 172.145 29.0255 172.188 28.3458 172.273C27.6661 172.359 26.8966 172.449 26.0372 172.543V164.07H34.9083V165.77H27.9356V170.867L29.2716 170.656C29.7325 170.586 30.3419 170.551 31.0997 170.551C31.8575 170.551 32.5216 170.676 33.0919 170.926C33.6622 171.168 34.1153 171.508 34.4512 171.945C35.045 172.727 35.3575 173.934 35.3887 175.566V176.164C35.3887 178.367 34.92 179.941 33.9825 180.887C33.0841 181.785 31.6661 182.234 29.7286 182.234C27.9239 182.234 26.2794 181.926 24.795 181.309L25.3692 179.586ZM41.4361 181.168V187.332H39.4908V168.055H41.0728L41.2955 169.496C42.2095 168.809 43.4009 168.305 44.8697 167.984C45.4009 167.875 45.9791 167.82 46.6041 167.82C47.2291 167.82 47.7798 167.902 48.2564 168.066C48.7408 168.23 49.1392 168.461 49.4517 168.758C49.7642 169.047 50.0064 169.395 50.1783 169.801C50.3502 170.207 50.4791 170.648 50.565 171.125C50.6744 171.781 50.7291 172.828 50.7291 174.266V174.535C50.7291 176.363 50.6666 177.629 50.5416 178.332C50.4166 179.035 50.2525 179.617 50.0494 180.078C49.8462 180.531 49.565 180.918 49.2056 181.238C48.4634 181.902 47.315 182.234 45.7603 182.234C44.2056 182.234 42.7642 181.879 41.4361 181.168ZM41.4361 179.562C42.7642 180.172 44.1587 180.477 45.6197 180.477C46.5728 180.477 47.2681 180.301 47.7056 179.949C48.2994 179.465 48.6314 178.336 48.7017 176.562C48.7252 175.977 48.7369 175.305 48.7369 174.547V174.289C48.7369 172.492 48.5806 171.289 48.2681 170.68C47.9166 169.984 47.19 169.637 46.0884 169.637H45.9127C44.7642 169.637 43.5728 169.922 42.3384 170.492C41.9791 170.656 41.6783 170.824 41.4361 170.996V179.562ZM61.2061 169.648C59.9327 169.648 58.542 170.098 57.0342 170.996V182H55.0889V168.055H56.7998L56.9873 169.496C58.3545 168.379 59.8858 167.82 61.5811 167.82C62.5498 167.82 63.3116 167.961 63.8662 168.242C64.4287 168.516 64.835 168.969 65.085 169.602C66.8116 168.414 68.4522 167.82 70.0069 167.82C71.4756 167.82 72.4952 168.156 73.0655 168.828C73.6123 169.477 73.8858 170.629 73.8858 172.285V182H71.917V172.648C71.917 171.523 71.8077 170.801 71.5889 170.48C71.3702 170.152 71.1084 169.934 70.8037 169.824C70.5069 169.707 70.1553 169.648 69.7491 169.648C69.3506 169.648 68.9717 169.688 68.6123 169.766C68.2608 169.836 67.9014 169.934 67.5342 170.059C66.792 170.316 66.0811 170.645 65.4014 171.043C65.4405 171.512 65.46 171.926 65.46 172.285V182H63.4912V172.648C63.4912 171.523 63.3819 170.801 63.1631 170.48C62.9444 170.152 62.6827 169.934 62.378 169.824C62.0811 169.707 61.6905 169.648 61.2061 169.648ZM83.5664 173.645H91.4297V175.344H83.5664V173.645ZM100.935 176.855C100.935 175.34 101.563 174.172 102.821 173.352C103.298 173.039 103.895 172.758 104.614 172.508C102.747 171.93 101.653 170.922 101.333 169.484C101.231 169.031 101.181 168.539 101.181 168.008V167.844C101.181 166.43 101.696 165.391 102.728 164.727C103.642 164.133 104.935 163.836 106.606 163.836H106.77C108.544 163.836 109.829 164.125 110.626 164.703C111.493 165.328 111.927 166.363 111.927 167.809V167.996C111.927 169.574 111.317 170.758 110.099 171.547C109.685 171.82 109.196 172.07 108.634 172.297C109.938 172.758 110.86 173.34 111.399 174.043C111.962 174.77 112.243 175.75 112.243 176.984V177.664C112.243 180.219 111.052 181.688 108.669 182.07C107.958 182.18 107.204 182.234 106.407 182.234C105.618 182.234 104.888 182.176 104.216 182.059C103.552 181.941 102.978 181.719 102.493 181.391C101.454 180.672 100.935 179.43 100.935 177.664V176.855ZM106.77 171.57C108.099 171.125 108.993 170.609 109.454 170.023C109.86 169.508 110.063 168.77 110.063 167.809C110.063 166.887 109.759 166.258 109.149 165.922C108.657 165.648 107.966 165.512 107.075 165.512C106.192 165.512 105.528 165.543 105.083 165.605C104.638 165.668 104.267 165.789 103.97 165.969C103.353 166.344 103.044 167.039 103.044 168.055C103.044 169.047 103.306 169.77 103.829 170.223C104.267 170.605 105.247 171.055 106.77 171.57ZM102.892 177.652C102.892 179.223 103.536 180.141 104.825 180.406C105.231 180.484 105.685 180.523 106.185 180.523H106.981C108.083 180.523 108.88 180.344 109.372 179.984C109.974 179.547 110.274 178.77 110.274 177.652V176.891C110.274 175.906 109.981 175.156 109.395 174.641C108.864 174.164 107.915 173.707 106.548 173.27C105.087 173.738 104.11 174.219 103.618 174.711C103.134 175.203 102.892 175.93 102.892 176.891V177.652ZM118.572 181.168V187.332H116.626V168.055H118.208L118.431 169.496C119.345 168.809 120.537 168.305 122.005 167.984C122.537 167.875 123.115 167.82 123.74 167.82C124.365 167.82 124.915 167.902 125.392 168.066C125.876 168.23 126.275 168.461 126.587 168.758C126.9 169.047 127.142 169.395 127.314 169.801C127.486 170.207 127.615 170.648 127.701 171.125C127.81 171.781 127.865 172.828 127.865 174.266V174.535C127.865 176.363 127.802 177.629 127.677 178.332C127.552 179.035 127.388 179.617 127.185 180.078C126.982 180.531 126.701 180.918 126.341 181.238C125.599 181.902 124.451 182.234 122.896 182.234C121.341 182.234 119.9 181.879 118.572 181.168ZM118.572 179.562C119.9 180.172 121.294 180.477 122.755 180.477C123.708 180.477 124.404 180.301 124.841 179.949C125.435 179.465 125.767 178.336 125.837 176.562C125.861 175.977 125.872 175.305 125.872 174.547V174.289C125.872 172.492 125.716 171.289 125.404 170.68C125.052 169.984 124.326 169.637 123.224 169.637H123.048C121.9 169.637 120.708 169.922 119.474 170.492C119.115 170.656 118.814 170.824 118.572 170.996V179.562ZM138.342 169.648C137.068 169.648 135.678 170.098 134.17 170.996V182H132.225V168.055H133.935L134.123 169.496C135.49 168.379 137.021 167.82 138.717 167.82C139.685 167.82 140.447 167.961 141.002 168.242C141.564 168.516 141.971 168.969 142.221 169.602C143.947 168.414 145.588 167.82 147.143 167.82C148.611 167.82 149.631 168.156 150.201 168.828C150.748 169.477 151.021 170.629 151.021 172.285V182H149.053V172.648C149.053 171.523 148.943 170.801 148.725 170.48C148.506 170.152 148.244 169.934 147.939 169.824C147.643 169.707 147.291 169.648 146.885 169.648C146.486 169.648 146.107 169.688 145.748 169.766C145.396 169.836 145.037 169.934 144.67 170.059C143.928 170.316 143.217 170.645 142.537 171.043C142.576 171.512 142.596 171.926 142.596 172.285V182H140.627V172.648C140.627 171.523 140.518 170.801 140.299 170.48C140.08 170.152 139.818 169.934 139.514 169.824C139.217 169.707 138.826 169.648 138.342 169.648Z" fill="#212121"/>
<path d="M74.8242 38.0703H85.125V39.8047H76.8164V46.8477H84.0234V48.5703H76.8164V56H74.8242V38.0703ZM88.2305 49.0625C88.2305 47.2891 88.3203 46.0508 88.5 45.3477C88.6797 44.6445 88.8984 44.0898 89.1562 43.6836C89.4219 43.2695 89.7773 42.9258 90.2227 42.6523C91.1133 42.0977 92.4297 41.8203 94.1719 41.8203C96.6875 41.8203 98.3047 42.4414 99.0234 43.6836C99.4531 44.4336 99.6992 45.4922 99.7617 46.8594C99.7852 47.5078 99.7969 48.2227 99.7969 49.0039C99.7969 49.7852 99.7695 50.5156 99.7148 51.1953C99.668 51.8672 99.5703 52.4727 99.4219 53.0117C99.2734 53.5508 99.0664 54.0234 98.8008 54.4297C98.5352 54.8281 98.1836 55.1641 97.7461 55.4375C96.8867 55.9688 95.6328 56.2344 93.9844 56.2344C91.5156 56.2344 89.8945 55.625 89.1211 54.4062C88.6445 53.6484 88.3672 52.5859 88.2891 51.2188C88.25 50.5625 88.2305 49.8438 88.2305 49.0625ZM91.418 53.9492C91.6992 54.1602 92.0508 54.3203 92.4727 54.4297C92.9023 54.5312 93.4844 54.582 94.2188 54.582C94.9609 54.582 95.582 54.4766 96.082 54.2656C96.5898 54.0547 96.9688 53.7188 97.2188 53.2578C97.4766 52.7891 97.6367 52.1836 97.6992 51.4414C97.7695 50.6992 97.8047 49.8359 97.8047 48.8516C97.8047 47.8672 97.7734 47.0469 97.7109 46.3906C97.6562 45.7344 97.5117 45.1914 97.2773 44.7617C96.8086 43.918 95.7656 43.4961 94.1484 43.4961C92.4375 43.4961 91.3242 43.918 90.8086 44.7617C90.5508 45.1914 90.3867 45.7383 90.3164 46.4023C90.2461 47.0664 90.2109 47.7891 90.2109 48.5703C90.2109 49.3516 90.2188 50.0156 90.2344 50.5625C90.2578 51.1016 90.3086 51.5898 90.3867 52.0273C90.4727 52.457 90.5938 52.832 90.75 53.1523C90.9141 53.4727 91.1367 53.7383 91.418 53.9492ZM104.215 49.0625C104.215 47.2891 104.305 46.0508 104.484 45.3477C104.664 44.6445 104.883 44.0898 105.141 43.6836C105.406 43.2695 105.762 42.9258 106.207 42.6523C107.098 42.0977 108.414 41.8203 110.156 41.8203C112.672 41.8203 114.289 42.4414 115.008 43.6836C115.438 44.4336 115.684 45.4922 115.746 46.8594C115.77 47.5078 115.781 48.2227 115.781 49.0039C115.781 49.7852 115.754 50.5156 115.699 51.1953C115.652 51.8672 115.555 52.4727 115.406 53.0117C115.258 53.5508 115.051 54.0234 114.785 54.4297C114.52 54.8281 114.168 55.1641 113.73 55.4375C112.871 55.9688 111.617 56.2344 109.969 56.2344C107.5 56.2344 105.879 55.625 105.105 54.4062C104.629 53.6484 104.352 52.5859 104.273 51.2188C104.234 50.5625 104.215 49.8438 104.215 49.0625ZM107.402 53.9492C107.684 54.1602 108.035 54.3203 108.457 54.4297C108.887 54.5312 109.469 54.582 110.203 54.582C110.945 54.582 111.566 54.4766 112.066 54.2656C112.574 54.0547 112.953 53.7188 113.203 53.2578C113.461 52.7891 113.621 52.1836 113.684 51.4414C113.754 50.6992 113.789 49.8359 113.789 48.8516C113.789 47.8672 113.758 47.0469 113.695 46.3906C113.641 45.7344 113.496 45.1914 113.262 44.7617C112.793 43.918 111.75 43.4961 110.133 43.4961C108.422 43.4961 107.309 43.918 106.793 44.7617C106.535 45.1914 106.371 45.7383 106.301 46.4023C106.23 47.0664 106.195 47.7891 106.195 48.5703C106.195 49.3516 106.203 50.0156 106.219 50.5625C106.242 51.1016 106.293 51.5898 106.371 52.0273C106.457 52.457 106.578 52.832 106.734 53.1523C106.898 53.4727 107.121 53.7383 107.402 53.9492ZM126.762 38.0703H137.062V39.8047H128.754V46.8477H135.961V48.5703H128.754V56H126.762V38.0703ZM141.973 38.7148C141.449 38.7148 141.113 38.6406 140.965 38.4922C140.73 38.25 140.613 37.918 140.613 37.4961C140.613 37.0664 140.637 36.7617 140.684 36.582C140.738 36.3945 140.816 36.25 140.918 36.1484C141.105 35.9609 141.391 35.8672 141.773 35.8672C142.164 35.8672 142.441 35.8867 142.605 35.9258C142.777 35.9648 142.918 36.0391 143.027 36.1484C143.215 36.3359 143.309 36.6445 143.309 37.0742C143.309 37.4961 143.285 37.8008 143.238 37.9883C143.199 38.168 143.129 38.3125 143.027 38.4219C142.832 38.6172 142.48 38.7148 141.973 38.7148ZM141.023 42.0547H142.945V56H141.047L141.023 42.0547ZM157.57 43.0156L157.758 42.0547H159.445L159.457 55.7422C159.457 57.75 159.062 59.2109 158.273 60.125C157.43 61.0938 156.004 61.5781 153.996 61.5781C152.434 61.5781 151.047 61.3672 149.836 60.9453C149.531 60.8438 149.297 60.75 149.133 60.6641L149.742 59.0117C149.883 59.0586 150.09 59.1328 150.363 59.2344C150.637 59.3438 150.965 59.4492 151.348 59.5508C152.316 59.8086 153.203 59.9375 154.008 59.9375C154.82 59.9375 155.445 59.8555 155.883 59.6914C156.32 59.5273 156.66 59.2734 156.902 58.9297C157.309 58.3516 157.512 57.3008 157.512 55.7773V54.6641C156.02 55.7109 154.441 56.2344 152.777 56.2344C150.832 56.2344 149.535 55.543 148.887 54.1602C148.512 53.3789 148.293 52.3906 148.23 51.1953C148.207 50.6484 148.195 50.0469 148.195 49.3906C148.195 48.7266 148.199 48.0586 148.207 47.3867C148.223 46.7148 148.273 46.0938 148.359 45.5234C148.445 44.9531 148.578 44.4414 148.758 43.9883C148.945 43.5273 149.211 43.1367 149.555 42.8164C150.266 42.1523 151.359 41.8203 152.836 41.8203C154.32 41.8203 155.898 42.2188 157.57 43.0156ZM157.512 44.6328C156.105 43.9297 154.746 43.5781 153.434 43.5781C152.48 43.5781 151.852 43.6562 151.547 43.8125C151.242 43.9688 151.008 44.1719 150.844 44.4219C150.688 44.6719 150.559 45.0156 150.457 45.4531C150.277 46.2734 150.188 47.625 150.188 49.5078V49.7656C150.188 51.5 150.402 52.7148 150.832 53.4102C151.262 54.1211 152.047 54.4766 153.188 54.4766H153.363C154.441 54.4766 155.543 54.1797 156.668 53.5859C156.988 53.4219 157.27 53.2539 157.512 53.082V44.6328ZM171.164 43.6367C169.609 43.6367 168.066 44.0859 166.535 44.9844V56H164.59V36.0547L166.488 35.8672V43.4961C167.293 42.8086 168.34 42.3125 169.629 42.0078C170.145 41.8828 170.754 41.8203 171.457 41.8203C172.16 41.8203 172.777 41.9023 173.309 42.0664C173.84 42.2227 174.262 42.4766 174.574 42.8281C175.137 43.4609 175.418 44.6133 175.418 46.2852V56H173.449V46.6367C173.449 45.5117 173.34 44.7891 173.121 44.4688C172.902 44.1406 172.641 43.9219 172.336 43.8125C172.039 43.6953 171.648 43.6367 171.164 43.6367ZM187.43 55.332C186.156 55.9336 184.98 56.2344 183.902 56.2344C181.949 56.2344 180.84 55.3984 180.574 53.7266C180.512 53.3281 180.48 52.75 180.48 51.9922V43.6836H178.793V42.2422L180.48 42.0547L180.785 38.8672H182.414V42.0547H186.48V43.6836H182.414V51.957C182.414 52.918 182.484 53.5312 182.625 53.7969C182.883 54.2812 183.398 54.5234 184.172 54.5234C184.945 54.5234 185.809 54.2852 186.762 53.8086L187.43 55.332ZM201.492 55.2617C199.875 55.9102 198.09 56.2344 196.137 56.2344C195.004 56.2344 194.043 56.1172 193.254 55.8828C191.996 55.5234 191.16 54.7812 190.746 53.6562C190.363 52.6016 190.172 51.0391 190.172 48.9688V48.3711C190.172 45.8945 190.688 44.1562 191.719 43.1562C192.648 42.2656 194.199 41.8203 196.371 41.8203C198.488 41.8203 199.934 42.3438 200.707 43.3906C201.082 43.8984 201.328 44.5156 201.445 45.2422C201.57 45.9609 201.633 46.6484 201.633 47.3047C201.633 48.3281 201.609 49.1211 201.562 49.6836C200.461 49.7305 199.473 49.7539 198.598 49.7539C198.598 49.7539 197.969 49.7539 196.711 49.7539C194.742 49.7539 193.227 49.668 192.164 49.4961C192.164 51.293 192.391 52.5469 192.844 53.2578C193.398 54.125 194.504 54.5586 196.16 54.5586C197.816 54.5586 199.402 54.2344 200.918 53.5859L201.492 55.2617ZM199.652 48.125V47C199.652 45.7734 199.414 44.8984 198.938 44.375C198.406 43.7891 197.488 43.4961 196.184 43.4961C194.621 43.4961 193.555 43.8359 192.984 44.5156C192.438 45.1641 192.164 46.3672 192.164 48.125H199.652ZM211.559 43.7539C210.559 43.7539 209.539 44.2539 208.5 45.2539V56H206.555V42.0547H208.266L208.453 43.9062C208.82 43.3359 209.215 42.8906 209.637 42.5703C210.066 42.25 210.418 42.0547 210.691 41.9844C211.082 41.875 211.453 41.8203 211.805 41.8203C212.156 41.8203 212.598 41.8906 213.129 42.0312L212.953 43.8945C212.555 43.8008 212.09 43.7539 211.559 43.7539ZM216.586 53.2344C218.195 54.1328 219.812 54.582 221.438 54.582C222.789 54.582 223.582 54.1016 223.816 53.1406C223.895 52.8125 223.934 52.4141 223.934 51.9453C223.934 51.4688 223.879 51.1016 223.77 50.8438C223.66 50.5781 223.477 50.3828 223.219 50.2578C222.961 50.125 222.617 50.0273 222.188 49.9648C221.766 49.9023 221.227 49.8164 220.57 49.707C219.914 49.5898 219.312 49.4609 218.766 49.3203C218.219 49.1797 217.754 48.9766 217.371 48.7109C216.559 48.1406 216.168 47.1797 216.199 45.8281V45.5352C216.199 44.1133 216.668 43.1016 217.605 42.5C218.512 41.9062 220.008 41.7031 222.094 41.8906C223.516 42.0234 224.648 42.2695 225.492 42.6289L224.941 44.3984C224.004 44 222.879 43.7109 221.566 43.5312C221.16 43.4766 220.777 43.4492 220.418 43.4492C220.066 43.4492 219.746 43.4766 219.457 43.5312C219.168 43.5859 218.926 43.6875 218.73 43.8359C218.355 44.1406 218.16 44.707 218.145 45.5352C218.121 46.5117 218.395 47.1328 218.965 47.3984C219.512 47.6562 220.16 47.8359 220.91 47.9375C221.66 48.0312 222.273 48.1172 222.75 48.1953C223.227 48.2656 223.66 48.3633 224.051 48.4883C224.441 48.6133 224.777 48.8125 225.059 49.0859C225.645 49.6406 225.93 50.6055 225.914 51.9805C225.875 54.3789 224.875 55.7461 222.914 56.082C222.32 56.1836 221.727 56.2344 221.133 56.2344C220.539 56.2344 219.992 56.1953 219.492 56.1172C219 56.0469 218.527 55.9453 218.074 55.8125C217.215 55.5703 216.438 55.25 215.742 54.8516L216.586 53.2344ZM111.047 84.5469C112.32 84.5469 113.602 84.3008 114.891 83.8086L115.406 85.4258C114.812 85.7227 114.098 85.9297 113.262 86.0469C112.426 86.1719 111.688 86.2344 111.047 86.2344H110.883C108.102 86.2344 106.238 85.4375 105.293 83.8438C104.715 82.875 104.363 81.5703 104.238 79.9297C104.184 79.1406 104.156 78.2773 104.156 77.3398C104.156 76.4023 104.18 75.5117 104.227 74.668C104.281 73.8164 104.387 73.0391 104.543 72.3359C104.699 71.625 104.926 70.9922 105.223 70.4375C105.52 69.8828 105.918 69.4141 106.418 69.0312C107.434 68.2344 108.91 67.8359 110.848 67.8359C112.098 67.8359 113.102 67.918 113.859 68.082C114.625 68.2383 115.141 68.3672 115.406 68.4688L114.879 70.3203C113.355 69.7891 112.051 69.5234 110.965 69.5234C109.887 69.5234 109.055 69.6562 108.469 69.9219C107.891 70.1797 107.438 70.6094 107.109 71.2109C106.539 72.2422 106.254 74.207 106.254 77.1055V77.9727C106.254 80.3555 106.562 82.0195 107.18 82.9648C107.867 84.0195 109.121 84.5469 110.941 84.5469H111.047ZM118.207 79.0625C118.207 77.2891 118.297 76.0508 118.477 75.3477C118.656 74.6445 118.875 74.0898 119.133 73.6836C119.398 73.2695 119.754 72.9258 120.199 72.6523C121.09 72.0977 122.406 71.8203 124.148 71.8203C126.664 71.8203 128.281 72.4414 129 73.6836C129.43 74.4336 129.676 75.4922 129.738 76.8594C129.762 77.5078 129.773 78.2227 129.773 79.0039C129.773 79.7852 129.746 80.5156 129.691 81.1953C129.645 81.8672 129.547 82.4727 129.398 83.0117C129.25 83.5508 129.043 84.0234 128.777 84.4297C128.512 84.8281 128.16 85.1641 127.723 85.4375C126.863 85.9688 125.609 86.2344 123.961 86.2344C121.492 86.2344 119.871 85.625 119.098 84.4062C118.621 83.6484 118.344 82.5859 118.266 81.2188C118.227 80.5625 118.207 79.8438 118.207 79.0625ZM121.395 83.9492C121.676 84.1602 122.027 84.3203 122.449 84.4297C122.879 84.5312 123.461 84.582 124.195 84.582C124.938 84.582 125.559 84.4766 126.059 84.2656C126.566 84.0547 126.945 83.7188 127.195 83.2578C127.453 82.7891 127.613 82.1836 127.676 81.4414C127.746 80.6992 127.781 79.8359 127.781 78.8516C127.781 77.8672 127.75 77.0469 127.688 76.3906C127.633 75.7344 127.488 75.1914 127.254 74.7617C126.785 73.918 125.742 73.4961 124.125 73.4961C122.414 73.4961 121.301 73.918 120.785 74.7617C120.527 75.1914 120.363 75.7383 120.293 76.4023C120.223 77.0664 120.188 77.7891 120.188 78.5703C120.188 79.3516 120.195 80.0156 120.211 80.5625C120.234 81.1016 120.285 81.5898 120.363 82.0273C120.449 82.457 120.57 82.832 120.727 83.1523C120.891 83.4727 121.113 83.7383 121.395 83.9492ZM141.199 73.6484C139.676 73.6484 138.125 74.0977 136.547 74.9961V86H134.602V72.0547H136.312L136.5 73.4961C137.352 72.8008 138.41 72.3047 139.676 72.0078C140.191 71.8828 140.797 71.8203 141.492 71.8203C142.188 71.8203 142.801 71.9023 143.332 72.0664C143.863 72.2227 144.285 72.4766 144.598 72.8281C145.168 73.4609 145.453 74.6133 145.453 76.2852V86H143.484V76.6484C143.484 75.5234 143.375 74.8008 143.156 74.4805C142.938 74.1523 142.676 73.9336 142.371 73.8242C142.074 73.707 141.684 73.6484 141.199 73.6484ZM160.277 85.3789C159.191 85.9492 157.703 86.2344 155.812 86.2344C154.695 86.2344 153.875 86.1484 153.352 85.9766C152.016 85.5234 151.141 84.7539 150.727 83.668C150.438 82.9102 150.27 82.0938 150.223 81.2188C150.176 80.3438 150.152 79.6055 150.152 79.0039C150.152 78.4023 150.168 77.8164 150.199 77.2461C150.23 76.668 150.305 76.1133 150.422 75.582C150.547 75.0508 150.734 74.5586 150.984 74.1055C151.234 73.6445 151.574 73.2422 152.004 72.8984C152.934 72.1797 154.27 71.8203 156.012 71.8203C157.293 71.8203 158.473 72.0078 159.551 72.3828C159.84 72.4766 160.059 72.5664 160.207 72.6523L159.621 74.3867C158.121 73.8086 156.891 73.5195 155.93 73.5195C154.977 73.5195 154.273 73.6289 153.82 73.8477C153.375 74.0664 153.027 74.3984 152.777 74.8438C152.355 75.6094 152.145 77.0156 152.145 79.0625C152.145 79.8828 152.172 80.6328 152.227 81.3125C152.281 81.9844 152.418 82.5625 152.637 83.0469C153.098 84.0469 154.047 84.5469 155.484 84.5469C156.93 84.5469 158.332 84.2969 159.691 83.7969L160.277 85.3789ZM175.523 85.2617C173.906 85.9102 172.121 86.2344 170.168 86.2344C169.035 86.2344 168.074 86.1172 167.285 85.8828C166.027 85.5234 165.191 84.7812 164.777 83.6562C164.395 82.6016 164.203 81.0391 164.203 78.9688V78.3711C164.203 75.8945 164.719 74.1562 165.75 73.1562C166.68 72.2656 168.23 71.8203 170.402 71.8203C172.52 71.8203 173.965 72.3438 174.738 73.3906C175.113 73.8984 175.359 74.5156 175.477 75.2422C175.602 75.9609 175.664 76.6484 175.664 77.3047C175.664 78.3281 175.641 79.1211 175.594 79.6836C174.492 79.7305 173.504 79.7539 172.629 79.7539C172.629 79.7539 172 79.7539 170.742 79.7539C168.773 79.7539 167.258 79.668 166.195 79.4961C166.195 81.293 166.422 82.5469 166.875 83.2578C167.43 84.125 168.535 84.5586 170.191 84.5586C171.848 84.5586 173.434 84.2344 174.949 83.5859L175.523 85.2617ZM173.684 78.125V77C173.684 75.7734 173.445 74.8984 172.969 74.375C172.438 73.7891 171.52 73.4961 170.215 73.4961C168.652 73.4961 167.586 73.8359 167.016 74.5156C166.469 75.1641 166.195 76.3672 166.195 78.125H173.684ZM185.59 73.7539C184.59 73.7539 183.57 74.2539 182.531 75.2539V86H180.586V72.0547H182.297L182.484 73.9062C182.852 73.3359 183.246 72.8906 183.668 72.5703C184.098 72.25 184.449 72.0547 184.723 71.9844C185.113 71.875 185.484 71.8203 185.836 71.8203C186.188 71.8203 186.629 71.8906 187.16 72.0312L186.984 73.8945C186.586 73.8008 186.121 73.7539 185.59 73.7539ZM197.461 85.332C196.188 85.9336 195.012 86.2344 193.934 86.2344C191.98 86.2344 190.871 85.3984 190.605 83.7266C190.543 83.3281 190.512 82.75 190.512 81.9922V73.6836H188.824V72.2422L190.512 72.0547L190.816 68.8672H192.445V72.0547H196.512V73.6836H192.445V81.957C192.445 82.918 192.516 83.5312 192.656 83.7969C192.914 84.2812 193.43 84.5234 194.203 84.5234C194.977 84.5234 195.84 84.2852 196.793 83.8086L197.461 85.332Z" fill="#212121"/>
<path d="M53 33H35C33.35 33 32 34.35 32 36V54C32 55.65 33.35 57 35 57H53C54.65 57 56 55.65 56 54V36C56 34.35 54.65 33 53 33ZM50 40.5H45.5V48.75C45.5 50.82 43.82 52.5 41.75 52.5C39.68 52.5 38 50.82 38 48.75C38 46.68 39.68 45 41.75 45C42.605 45 43.37 45.285 44 45.765V37.5H50V40.5ZM29 39H26V60C26 61.65 27.35 63 29 63H50V60H29V39Z" fill="#212121"/>
<path d="M222.273 147H197.727C196.227 147 195 148.25 195 149.778V169.222C195 170.75 196.227 172 197.727 172H222.273C223.773 172 225 170.75 225 169.222V149.778C225 148.25 223.773 147 222.273 147ZM210 158.111H197.727V155.333H210V158.111ZM210 152.556H197.727V149.778H210V152.556Z" fill="#212121"/>
<path d="M198 160H210V168H198V160Z" fill="#B55C0A"/>
<path d="M206.4 164.357H204.257V166.5H203.543V164.357H201.4V163.643H203.543V161.5H204.257V163.643H206.4V164.357Z" fill="#212121"/>
</svg>
