<svg width="128" height="124" viewBox="0 0 128 124" fill="none" xmlns="http://www.w3.org/2000/svg">
<rect width="124" height="124" rx="10" fill="#F45D00" fill-opacity="0.7"/>
<path d="M20.7235 87.1152C20.7235 88.0221 20.7668 88.9655 20.8534 89.9453L19.8417 90.0273L19.6708 89.0771C19.092 89.542 18.3264 89.8656 17.3739 90.0479C17.064 90.1071 16.7883 90.1367 16.5468 90.1367C16.3052 90.1367 16.091 90.1253 15.9042 90.1025C15.7219 90.0798 15.5442 90.0365 15.371 89.9727C15.2024 89.9043 15.0451 89.8109 14.8993 89.6924C14.7535 89.5739 14.6259 89.4167 14.5165 89.2207C14.2841 88.806 14.1679 88.3092 14.1679 87.7305C14.1679 87.1471 14.2089 86.696 14.2909 86.377C14.3775 86.0534 14.5188 85.7845 14.7147 85.5703C15.1021 85.1465 15.7538 84.9346 16.6698 84.9346C17.5858 84.9346 18.5634 85.1077 19.6024 85.4541V84.5654C19.6024 83.5765 19.1945 82.9909 18.3788 82.8086C18.1145 82.7493 17.8114 82.7197 17.4696 82.7197C16.6903 82.7197 15.8814 82.8747 15.0429 83.1846L14.7899 82.2002C15.0223 82.0452 15.6148 81.9062 16.5673 81.7832C16.868 81.7467 17.2281 81.7285 17.6473 81.7285C18.0712 81.7285 18.4859 81.7786 18.8915 81.8789C19.2971 81.9792 19.6343 82.1432 19.9032 82.3711C20.4501 82.8223 20.7235 83.5537 20.7235 84.5654V87.1152ZM19.5751 86.3086C18.5087 86.0397 17.5243 85.9053 16.622 85.9053C16.066 85.9053 15.6968 86.0648 15.5145 86.3838C15.3915 86.6071 15.33 86.9375 15.33 87.375C15.33 87.8125 15.3527 88.1292 15.3983 88.3252C15.4485 88.5212 15.5282 88.6829 15.6376 88.8105C15.8518 89.0521 16.205 89.1729 16.6971 89.1729C17.4673 89.1729 18.2307 88.9746 18.9872 88.5781C19.2196 88.4596 19.4292 88.3275 19.6161 88.1816C19.5888 87.6895 19.5751 87.0651 19.5751 86.3086ZM23.7863 78.3789L24.9142 78.2832V90H23.8L23.7863 78.3789ZM28.1821 78.3789L29.31 78.2832V90H28.1957L28.1821 78.3789ZM34.6631 81.8652H35.8799L37.6025 87.8398L37.9102 89.1455L38.1357 88.0518L39.9131 81.8652H41.0342L42.7842 87.8398L43.085 89.1592L43.3037 88.0449L44.999 81.8652H46.2295L43.8232 90H42.3262L40.7676 84.7842L40.4531 83.1846L40.1729 84.7842L38.6211 90H37.1924L34.6631 81.8652ZM54.4671 89.5693C53.5237 89.9476 52.4824 90.1367 51.343 90.1367C50.6822 90.1367 50.1217 90.0684 49.6614 89.9316C48.9277 89.722 48.4401 89.2891 48.1985 88.6328C47.9752 88.0176 47.8636 87.1061 47.8636 85.8984V85.5498C47.8636 84.1051 48.1643 83.0911 48.7659 82.5078C49.3082 81.9883 50.2128 81.7285 51.4798 81.7285C52.7148 81.7285 53.5579 82.0339 54.0091 82.6445C54.2278 82.9408 54.3714 83.3008 54.4397 83.7246C54.5126 84.1439 54.5491 84.5449 54.5491 84.9277C54.5491 85.5247 54.5354 85.9873 54.5081 86.3154C53.8655 86.3428 53.289 86.3564 52.7786 86.3564C52.7786 86.3564 52.4117 86.3564 51.678 86.3564C50.5296 86.3564 49.6455 86.3063 49.0257 86.2061C49.0257 87.2542 49.1578 87.9857 49.4221 88.4004C49.7457 88.9062 50.3906 89.1592 51.3567 89.1592C52.3229 89.1592 53.248 88.9701 54.1321 88.5918L54.4671 89.5693ZM53.3938 85.4062V84.75C53.3938 84.0345 53.2548 83.5241 52.9768 83.2188C52.6669 82.877 52.1315 82.7061 51.3704 82.7061C50.4589 82.7061 49.8369 82.9043 49.5042 83.3008C49.1852 83.679 49.0257 84.3809 49.0257 85.4062H53.3938ZM63.5113 89.5693C62.5679 89.9476 61.5266 90.1367 60.3873 90.1367C59.7265 90.1367 59.1659 90.0684 58.7056 89.9316C57.9719 89.722 57.4843 89.2891 57.2427 88.6328C57.0194 88.0176 56.9078 87.1061 56.9078 85.8984V85.5498C56.9078 84.1051 57.2086 83.0911 57.8101 82.5078C58.3524 81.9883 59.2571 81.7285 60.524 81.7285C61.759 81.7285 62.6021 82.0339 63.0533 82.6445C63.272 82.9408 63.4156 83.3008 63.4839 83.7246C63.5569 84.1439 63.5933 84.5449 63.5933 84.9277C63.5933 85.5247 63.5797 85.9873 63.5523 86.3154C62.9097 86.3428 62.3332 86.3564 61.8228 86.3564C61.8228 86.3564 61.456 86.3564 60.7222 86.3564C59.5738 86.3564 58.6897 86.3063 58.0699 86.2061C58.0699 87.2542 58.202 87.9857 58.4664 88.4004C58.7899 88.9062 59.4348 89.1592 60.4009 89.1592C61.3671 89.1592 62.2922 88.9701 63.1763 88.5918L63.5113 89.5693ZM62.438 85.4062V84.75C62.438 84.0345 62.2991 83.5241 62.0211 83.2188C61.7112 82.877 61.1757 82.7061 60.4146 82.7061C59.5032 82.7061 58.8811 82.9043 58.5484 83.3008C58.2294 83.679 58.0699 84.3809 58.0699 85.4062H62.438ZM66.1639 78.3926L67.2987 78.2695V85.3242C67.481 85.3607 67.6997 85.2673 67.9549 85.0439C68.2147 84.8206 68.4448 84.6087 68.6454 84.4082C68.8459 84.2031 69.0532 83.9798 69.2674 83.7383C70.0376 82.8496 70.5435 82.2253 70.785 81.8652H72.1385C72.0383 82.0931 71.8081 82.4167 71.4481 82.8359L70.5321 83.8682C70.0353 84.4014 69.6366 84.7956 69.3358 85.0508C69.0396 85.306 68.8436 85.4518 68.7479 85.4883V85.5566L68.953 85.6592C69.2492 85.8005 69.6366 86.1764 70.1151 86.7871L72.6649 90H71.2293L69.493 87.7236C68.6909 86.6755 68.078 86.1331 67.6541 86.0967L67.5038 86.083C67.4582 86.0785 67.4172 86.0785 67.3807 86.083C67.3442 86.083 67.3169 86.083 67.2987 86.083V90H66.1639V78.3926ZM10.743 98.5186L9.08875 98.7168L8.99305 97.7734L11.9052 97.4043V108H10.743V98.5186ZM16.4718 107.515V111.11H15.3371V99.8652H16.2599L16.3898 100.706C16.923 100.305 17.618 100.011 18.4748 99.8242C18.7847 99.7604 19.1219 99.7285 19.4865 99.7285C19.8511 99.7285 20.1724 99.7764 20.4504 99.8721C20.7329 99.9678 20.9653 100.102 21.1476 100.275C21.3299 100.444 21.4712 100.647 21.5714 100.884C21.6717 101.121 21.7469 101.378 21.797 101.656C21.8608 102.039 21.8927 102.65 21.8927 103.488V103.646C21.8927 104.712 21.8563 105.45 21.7834 105.86C21.7104 106.271 21.6147 106.61 21.4962 106.879C21.3778 107.143 21.2137 107.369 21.0041 107.556C20.5711 107.943 19.9012 108.137 18.9943 108.137C18.0874 108.137 17.2466 107.929 16.4718 107.515ZM16.4718 106.578C17.2466 106.934 18.0601 107.111 18.9123 107.111C19.4683 107.111 19.8739 107.009 20.1291 106.804C20.4754 106.521 20.6691 105.863 20.7101 104.828C20.7238 104.486 20.7306 104.094 20.7306 103.652V103.502C20.7306 102.454 20.6395 101.752 20.4572 101.396C20.2521 100.991 19.8283 100.788 19.1857 100.788H19.0832C18.4132 100.788 17.7183 100.954 16.9982 101.287C16.7886 101.383 16.6131 101.481 16.4718 101.581V106.578ZM28.0043 100.795C27.2615 100.795 26.4503 101.057 25.5707 101.581V108H24.436V99.8652H25.434L25.5434 100.706C26.3409 100.054 27.2342 99.7285 28.2231 99.7285C28.7882 99.7285 29.2325 99.8105 29.5561 99.9746C29.8842 100.134 30.1212 100.398 30.267 100.768C31.2742 100.075 32.2312 99.7285 33.1381 99.7285C33.9949 99.7285 34.5896 99.9245 34.9223 100.316C35.2413 100.695 35.4008 101.367 35.4008 102.333V108H34.2524V102.545C34.2524 101.889 34.1886 101.467 34.061 101.28C33.9334 101.089 33.7807 100.961 33.603 100.897C33.4298 100.829 33.2247 100.795 32.9877 100.795C32.7553 100.795 32.5343 100.818 32.3246 100.863C32.1196 100.904 31.9099 100.961 31.6957 101.034C31.2628 101.185 30.8481 101.376 30.4516 101.608C30.4744 101.882 30.4858 102.123 30.4858 102.333V108H29.3373V102.545C29.3373 101.889 29.2735 101.467 29.1459 101.28C29.0183 101.089 28.8657 100.961 28.6879 100.897C28.5148 100.829 28.2869 100.795 28.0043 100.795ZM41.0478 103.126H45.6348V104.117H41.0478V103.126ZM50.9332 106.592C51.8583 106.965 52.7903 107.152 53.7291 107.152C54.4354 107.152 54.9276 106.929 55.2056 106.482C55.4608 106.081 55.5884 105.421 55.5884 104.5C55.5884 103.689 55.4563 103.115 55.192 102.777C54.914 102.426 54.4332 102.251 53.7496 102.251C53.426 102.251 53.066 102.276 52.6695 102.326C52.273 102.376 51.8241 102.429 51.3228 102.483V97.541H56.4976V98.5322H52.4302V101.506L53.2095 101.383C53.4784 101.342 53.8339 101.321 54.2759 101.321C54.718 101.321 55.1054 101.394 55.438 101.54C55.7707 101.681 56.0351 101.88 56.231 102.135C56.5774 102.59 56.7597 103.295 56.7779 104.247V104.596C56.7779 105.881 56.5045 106.799 55.9576 107.351C55.4335 107.875 54.6063 108.137 53.4761 108.137C52.4234 108.137 51.4641 107.957 50.5982 107.597L50.9332 106.592ZM60.3055 107.515V111.11H59.1707V99.8652H60.0936L60.2235 100.706C60.7567 100.305 61.4517 100.011 62.3084 99.8242C62.6183 99.7604 62.9556 99.7285 63.3202 99.7285C63.6847 99.7285 64.006 99.7764 64.284 99.8721C64.5666 99.9678 64.799 100.102 64.9813 100.275C65.1636 100.444 65.3049 100.647 65.4051 100.884C65.5054 101.121 65.5806 101.378 65.6307 101.656C65.6945 102.039 65.7264 102.65 65.7264 103.488V103.646C65.7264 104.712 65.6899 105.45 65.617 105.86C65.5441 106.271 65.4484 106.61 65.3299 106.879C65.2114 107.143 65.0474 107.369 64.8377 107.556C64.4048 107.943 63.7349 108.137 62.828 108.137C61.9211 108.137 61.0802 107.929 60.3055 107.515ZM60.3055 106.578C61.0802 106.934 61.8937 107.111 62.7459 107.111C63.3019 107.111 63.7075 107.009 63.9627 106.804C64.3091 106.521 64.5028 105.863 64.5438 104.828C64.5575 104.486 64.5643 104.094 64.5643 103.652V103.502C64.5643 102.454 64.4732 101.752 64.2909 101.396C64.0858 100.991 63.662 100.788 63.0194 100.788H62.9168C62.2469 100.788 61.5519 100.954 60.8319 101.287C60.6222 101.383 60.4468 101.481 60.3055 101.581V106.578ZM71.838 100.795C71.0952 100.795 70.284 101.057 69.4044 101.581V108H68.2696V99.8652H69.2677L69.3771 100.706C70.1746 100.054 71.0678 99.7285 72.0568 99.7285C72.6219 99.7285 73.0662 99.8105 73.3898 99.9746C73.7179 100.134 73.9549 100.398 74.1007 100.768C75.1079 100.075 76.0649 99.7285 76.9718 99.7285C77.8286 99.7285 78.4233 99.9245 78.756 100.316C79.075 100.695 79.2345 101.367 79.2345 102.333V108H78.0861V102.545C78.0861 101.889 78.0222 101.467 77.8946 101.28C77.767 101.089 77.6144 100.961 77.4366 100.897C77.2635 100.829 77.0584 100.795 76.8214 100.795C76.589 100.795 76.368 100.818 76.1583 100.863C75.9532 100.904 75.7436 100.961 75.5294 101.034C75.0965 101.185 74.6818 101.376 74.2853 101.608C74.3081 101.882 74.3195 102.123 74.3195 102.333V108H73.171V102.545C73.171 101.889 73.1072 101.467 72.9796 101.28C72.852 101.089 72.6993 100.961 72.5216 100.897C72.3484 100.829 72.1206 100.795 71.838 100.795Z" fill="#F6F6F6"/>
<path d="M41.5166 22.541H43.1094L46.7666 33H45.5293L44.4902 29.9307H40.2793L39.2949 33H38.0918L41.5166 22.541ZM44.1621 28.9531L42.3164 23.4639L42.1045 24.2432L40.5938 28.9531H44.1621ZM52.4541 25.7949C51.5654 25.7949 50.6608 26.057 49.7402 26.5811V33H48.6055V24.8652H49.6035L49.7129 25.7061C50.2096 25.3005 50.8271 25.0111 51.5654 24.8379C51.8662 24.765 52.2194 24.7285 52.625 24.7285C53.0306 24.7285 53.3883 24.7764 53.6982 24.8721C54.0081 24.9632 54.2542 25.1113 54.4365 25.3164C54.7692 25.6855 54.9355 26.3577 54.9355 27.333V33H53.7871V27.5449C53.7871 26.8887 53.7233 26.4671 53.5957 26.2803C53.4681 26.0889 53.3154 25.9613 53.1377 25.8975C52.9645 25.8291 52.7367 25.7949 52.4541 25.7949ZM63.583 32.6377C62.9495 32.9704 62.0814 33.1367 60.9785 33.1367C60.3268 33.1367 59.8483 33.0866 59.543 32.9863C58.7637 32.722 58.2533 32.2731 58.0117 31.6396C57.8431 31.1976 57.7451 30.7214 57.7178 30.2109C57.6904 29.7005 57.6768 29.2699 57.6768 28.9189C57.6768 28.568 57.6859 28.2262 57.7041 27.8936C57.7223 27.5563 57.7656 27.2327 57.834 26.9229C57.9069 26.613 58.0163 26.3258 58.1621 26.0615C58.3079 25.7926 58.5062 25.5579 58.7568 25.3574C59.2992 24.9382 60.0785 24.7285 61.0947 24.7285C61.8421 24.7285 62.5303 24.8379 63.1592 25.0566C63.3278 25.1113 63.4554 25.1637 63.542 25.2139L63.2002 26.2256C62.3252 25.8883 61.6074 25.7197 61.0469 25.7197C60.4909 25.7197 60.0807 25.7835 59.8164 25.9111C59.5566 26.0387 59.3538 26.2324 59.208 26.4922C58.9619 26.9388 58.8389 27.7591 58.8389 28.9531C58.8389 29.4316 58.8548 29.8691 58.8867 30.2656C58.9186 30.6576 58.9984 30.9948 59.126 31.2773C59.3949 31.8607 59.9486 32.1523 60.7871 32.1523C61.6302 32.1523 62.4482 32.0065 63.2412 31.7148L63.583 32.6377ZM66.9189 22.917C66.6136 22.917 66.4176 22.8737 66.3311 22.7871C66.1943 22.6458 66.126 22.4521 66.126 22.2061C66.126 21.9554 66.1396 21.7777 66.167 21.6729C66.1989 21.5635 66.2445 21.4792 66.3037 21.4199C66.4131 21.3105 66.5794 21.2559 66.8027 21.2559C67.0306 21.2559 67.1924 21.2673 67.2881 21.29C67.3883 21.3128 67.4704 21.3561 67.5342 21.4199C67.6436 21.5293 67.6982 21.7093 67.6982 21.96C67.6982 22.2061 67.6846 22.3838 67.6572 22.4932C67.6344 22.598 67.5934 22.6823 67.5342 22.7461C67.4202 22.86 67.2152 22.917 66.9189 22.917ZM66.3652 24.8652H67.4863V33H66.3789L66.3652 24.8652ZM77.1523 32.5693C76.209 32.9476 75.1676 33.1367 74.0283 33.1367C73.3675 33.1367 72.807 33.0684 72.3467 32.9316C71.613 32.722 71.1253 32.2891 70.8838 31.6328C70.6605 31.0176 70.5488 30.1061 70.5488 28.8984V28.5498C70.5488 27.1051 70.8496 26.0911 71.4512 25.5078C71.9935 24.9883 72.8981 24.7285 74.165 24.7285C75.4001 24.7285 76.2432 25.0339 76.6943 25.6445C76.9131 25.9408 77.0566 26.3008 77.125 26.7246C77.1979 27.1439 77.2344 27.5449 77.2344 27.9277C77.2344 28.5247 77.2207 28.9873 77.1934 29.3154C76.5508 29.3428 75.9743 29.3564 75.4639 29.3564C75.4639 29.3564 75.097 29.3564 74.3633 29.3564C73.2148 29.3564 72.3307 29.3063 71.7109 29.2061C71.7109 30.2542 71.8431 30.9857 72.1074 31.4004C72.431 31.9062 73.0758 32.1592 74.042 32.1592C75.0081 32.1592 75.9333 31.9701 76.8174 31.5918L77.1523 32.5693ZM76.0791 28.4062V27.75C76.0791 27.0345 75.9401 26.5241 75.6621 26.2188C75.3522 25.877 74.8167 25.7061 74.0557 25.7061C73.1442 25.7061 72.5221 25.9043 72.1895 26.3008C71.8704 26.679 71.7109 27.3809 71.7109 28.4062H76.0791ZM83.9541 25.7949C83.0654 25.7949 82.1608 26.057 81.2402 26.5811V33H80.1055V24.8652H81.1035L81.2129 25.7061C81.7096 25.3005 82.3271 25.0111 83.0654 24.8379C83.3662 24.765 83.7194 24.7285 84.125 24.7285C84.5306 24.7285 84.8883 24.7764 85.1982 24.8721C85.5081 24.9632 85.7542 25.1113 85.9365 25.3164C86.2692 25.6855 86.4355 26.3577 86.4355 27.333V33H85.2871V27.5449C85.2871 26.8887 85.2233 26.4671 85.0957 26.2803C84.9681 26.0889 84.8154 25.9613 84.6377 25.8975C84.4645 25.8291 84.2367 25.7949 83.9541 25.7949ZM93.4355 32.6104C92.6927 32.9613 92.0068 33.1367 91.3779 33.1367C90.2386 33.1367 89.5915 32.6491 89.4365 31.6738C89.4001 31.4414 89.3818 31.1042 89.3818 30.6621V25.8154H88.3975V24.9746L89.3818 24.8652L89.5596 23.0059H90.5098V24.8652H92.8818V25.8154H90.5098V30.6416C90.5098 31.2021 90.5508 31.5599 90.6328 31.7148C90.7832 31.9974 91.084 32.1387 91.5352 32.1387C91.9863 32.1387 92.4899 31.9997 93.0459 31.7217L93.4355 32.6104ZM101.003 22.541H102.596L106.253 33H105.016L103.977 29.9307H99.7656L98.7812 33H97.5781L101.003 22.541ZM103.648 28.9531L101.803 23.4639L101.591 24.2432L100.08 28.9531H103.648ZM111.011 25.8564C110.427 25.8564 109.833 26.1481 109.227 26.7314V33H108.092V24.8652H109.09L109.199 25.9453C109.413 25.6126 109.644 25.3529 109.89 25.166C110.14 24.9792 110.345 24.8652 110.505 24.8242C110.733 24.7604 110.949 24.7285 111.154 24.7285C111.359 24.7285 111.617 24.7695 111.927 24.8516L111.824 25.9385C111.592 25.8838 111.321 25.8564 111.011 25.8564ZM117.936 32.6104C117.193 32.9613 116.507 33.1367 115.878 33.1367C114.739 33.1367 114.091 32.6491 113.937 31.6738C113.9 31.4414 113.882 31.1042 113.882 30.6621V25.8154H112.897V24.9746L113.882 24.8652L114.06 23.0059H115.01V24.8652H117.382V25.8154H115.01V30.6416C115.01 31.2021 115.051 31.5599 115.133 31.7148C115.283 31.9974 115.584 32.1387 116.035 32.1387C116.486 32.1387 116.99 31.9997 117.546 31.7217L117.936 32.6104ZM48.3936 40.541H50.1777L52.5566 48.2656L52.96 49.9336L53.3496 48.2588L55.6465 40.541H57.3486L59.0371 51H57.875L56.6035 43.0977L56.4121 41.252L55.9951 43.1113L53.6367 50.9932H52.29L49.8291 43.0703L49.3438 41.252L49.1113 43.084L47.9561 51H46.7803L48.3936 40.541ZM67.623 47.418C67.623 48.9219 67.6663 50.0977 67.7529 50.9453L66.7344 51.0273L66.5703 50.0635C66.0371 50.5055 65.415 50.8245 64.7041 51.0205C64.4215 51.098 64.0843 51.1367 63.6924 51.1367C63.305 51.1367 62.9564 51.0911 62.6465 51C62.3411 50.9043 62.0973 50.7539 61.915 50.5488C61.5824 50.1797 61.416 49.5075 61.416 48.5322V42.8652H62.5645V48.3477C62.5645 49.0039 62.6283 49.4277 62.7559 49.6191C62.8835 49.806 63.0339 49.9336 63.207 50.002C63.3848 50.0658 63.5944 50.0977 63.8359 50.0977C64.0775 50.0977 64.3099 50.0794 64.5332 50.043C64.7611 50.002 64.9889 49.945 65.2168 49.8721C65.6953 49.7171 66.1283 49.5052 66.5156 49.2363V49.2295C66.4974 48.8831 66.4883 48.2087 66.4883 47.2061V42.8652H67.623V47.418ZM70.8086 49.3867C71.7474 49.9108 72.6908 50.1729 73.6387 50.1729C74.4271 50.1729 74.8896 49.8926 75.0264 49.332C75.0719 49.1406 75.0947 48.9082 75.0947 48.6348C75.0947 48.3568 75.0628 48.1426 74.999 47.9922C74.9352 47.8372 74.8281 47.7233 74.6777 47.6504C74.5273 47.5729 74.3268 47.516 74.0762 47.4795C73.8301 47.443 73.5156 47.3929 73.1328 47.3291C72.75 47.2607 72.3991 47.1855 72.0801 47.1035C71.7611 47.0215 71.4899 46.903 71.2666 46.748C70.7926 46.4154 70.5648 45.8548 70.583 45.0664V44.8955C70.583 44.0661 70.8564 43.4759 71.4033 43.125C71.932 42.7786 72.8047 42.6602 74.0215 42.7695C74.8509 42.847 75.5117 42.9906 76.0039 43.2002L75.6826 44.2324C75.1357 44 74.4795 43.8314 73.7139 43.7266C73.4769 43.6947 73.2536 43.6787 73.0439 43.6787C72.8389 43.6787 72.652 43.6947 72.4834 43.7266C72.3148 43.7585 72.1735 43.8177 72.0596 43.9043C71.8408 44.082 71.7269 44.4124 71.7178 44.8955C71.7041 45.4652 71.8636 45.8275 72.1963 45.9824C72.5153 46.1328 72.8936 46.2376 73.3311 46.2969C73.7686 46.3516 74.1263 46.4017 74.4043 46.4473C74.6823 46.4883 74.9352 46.5452 75.1631 46.6182C75.391 46.6911 75.5869 46.8073 75.751 46.9668C76.0928 47.2904 76.2591 47.8532 76.25 48.6553C76.2272 50.0544 75.6439 50.8519 74.5 51.0479C74.1536 51.1071 73.8073 51.1367 73.4609 51.1367C73.1146 51.1367 72.7956 51.1139 72.5039 51.0684C72.2168 51.0273 71.9411 50.9681 71.6768 50.8906C71.1755 50.7493 70.722 50.5625 70.3164 50.3301L70.8086 49.3867ZM85.3281 50.5693C84.3848 50.9476 83.3434 51.1367 82.2041 51.1367C81.5433 51.1367 80.9827 51.0684 80.5225 50.9316C79.7887 50.722 79.3011 50.2891 79.0596 49.6328C78.8363 49.0176 78.7246 48.1061 78.7246 46.8984V46.5498C78.7246 45.1051 79.0254 44.0911 79.627 43.5078C80.1693 42.9883 81.0739 42.7285 82.3408 42.7285C83.5758 42.7285 84.4189 43.0339 84.8701 43.6445C85.0889 43.9408 85.2324 44.3008 85.3008 44.7246C85.3737 45.1439 85.4102 45.5449 85.4102 45.9277C85.4102 46.5247 85.3965 46.9873 85.3691 47.3154C84.7266 47.3428 84.1501 47.3564 83.6396 47.3564C83.6396 47.3564 83.2728 47.3564 82.5391 47.3564C81.3906 47.3564 80.5065 47.3063 79.8867 47.2061C79.8867 48.2542 80.0189 48.9857 80.2832 49.4004C80.6068 49.9062 81.2516 50.1592 82.2178 50.1592C83.1839 50.1592 84.109 49.9701 84.9932 49.5918L85.3281 50.5693ZM84.2549 46.4062V45.75C84.2549 45.0345 84.1159 44.5241 83.8379 44.2188C83.528 43.877 82.9925 43.7061 82.2314 43.7061C81.32 43.7061 80.6979 43.9043 80.3652 44.3008C80.0462 44.679 79.8867 45.3809 79.8867 46.4062H84.2549ZM94.4336 47.418C94.4336 48.9219 94.4769 50.0977 94.5635 50.9453L93.5449 51.0273L93.3809 50.0635C92.8477 50.5055 92.2256 50.8245 91.5146 51.0205C91.2321 51.098 90.8949 51.1367 90.5029 51.1367C90.1156 51.1367 89.7669 51.0911 89.457 51C89.1517 50.9043 88.9079 50.7539 88.7256 50.5488C88.3929 50.1797 88.2266 49.5075 88.2266 48.5322V42.8652H89.375V48.3477C89.375 49.0039 89.4388 49.4277 89.5664 49.6191C89.694 49.806 89.8444 49.9336 90.0176 50.002C90.1953 50.0658 90.4049 50.0977 90.6465 50.0977C90.888 50.0977 91.1204 50.0794 91.3438 50.043C91.5716 50.002 91.7995 49.945 92.0273 49.8721C92.5059 49.7171 92.9388 49.5052 93.3262 49.2363V49.2295C93.3079 48.8831 93.2988 48.2087 93.2988 47.2061V42.8652H94.4336V47.418ZM101.188 43.7949C100.445 43.7949 99.6335 44.057 98.7539 44.5811V51H97.6191V42.8652H98.6172L98.7266 43.7061C99.5241 43.0544 100.417 42.7285 101.406 42.7285C101.971 42.7285 102.416 42.8105 102.739 42.9746C103.067 43.1341 103.304 43.3984 103.45 43.7676C104.457 43.0749 105.414 42.7285 106.321 42.7285C107.178 42.7285 107.773 42.9245 108.105 43.3164C108.424 43.6947 108.584 44.3669 108.584 45.333V51H107.436V45.5449C107.436 44.8887 107.372 44.4671 107.244 44.2803C107.117 44.0889 106.964 43.9613 106.786 43.8975C106.613 43.8291 106.408 43.7949 106.171 43.7949C105.938 43.7949 105.717 43.8177 105.508 43.8633C105.303 43.9043 105.093 43.9613 104.879 44.0342C104.446 44.1846 104.031 44.376 103.635 44.6084C103.658 44.8818 103.669 45.1234 103.669 45.333V51H102.521V45.5449C102.521 44.8887 102.457 44.4671 102.329 44.2803C102.201 44.0889 102.049 43.9613 101.871 43.8975C101.698 43.8291 101.47 43.7949 101.188 43.7949Z" fill="#F6F6F6"/>
<path d="M111.727 85H93.0727C91.9327 85 91 85.95 91 87.1111V101.889C91 103.05 91.9327 104 93.0727 104H111.727C112.867 104 113.8 103.05 113.8 101.889V87.1111C113.8 85.95 112.867 85 111.727 85ZM102.4 93.4444H93.0727V91.3333H102.4V93.4444ZM102.4 89.2222H93.0727V87.1111H102.4V89.2222Z" fill="#F6F6F6"/>
<path d="M93.28 94.88H102.4V100.96H93.28V94.88Z" fill="#B55C0A"/>
<path d="M99.664 98.1914H98.0354V99.82H97.4926V98.1914H95.864V97.6485H97.4926V96.02H98.0354V97.6485H99.664V98.1914Z" fill="#F6F6F6"/>
<path d="M19 23C20.1 23 21 23.9 21 25C21 26.1 20.1 27 19 27C17.9 27 17 26.1 17 25C17 23.9 17.9 23 19 23ZM28 30H22V43H20V37H18V43H16V30H10V28H28V30Z" fill="#F6F6F6"/>
</svg>
