<svg width="360" height="26" viewBox="0 0 360 26" fill="none" xmlns="http://www.w3.org/2000/svg">
<g filter="url(#filter0_d)">
<path d="M17 8.26795C18.3333 9.03775 18.3333 10.9623 17 11.7321L8 16.9282C6.66667 17.698 5 16.7358 5 15.1962L5 4.80385C5 3.26425 6.66667 2.302 8 3.0718L17 8.26795Z" fill="#F45D00"/>
<path d="M16.75 11.299L7.75 16.4952C6.75 17.0725 5.5 16.3509 5.5 15.1962L5.5 4.80385C5.5 3.64915 6.75 2.92746 7.75 3.50481L16.75 8.70096C17.75 9.27831 17.75 10.7217 16.75 11.299Z" stroke="black"/>
</g>
<g filter="url(#filter1_d)">
<rect x="23" y="8" width="333" height="4" rx="2" fill="#F45D00"/>
<rect x="23.5" y="8.5" width="332" height="3" rx="1.5" stroke="black"/>
</g>
<defs>
<filter id="filter0_d" x="1" y="2.80086" width="21" height="22.3983" filterUnits="userSpaceOnUse" color-interpolation-filters="sRGB">
<feFlood flood-opacity="0" result="BackgroundImageFix"/>
<feColorMatrix in="SourceAlpha" type="matrix" values="0 0 0 0 0 0 0 0 0 0 0 0 0 0 0 0 0 0 127 0" result="hardAlpha"/>
<feOffset dy="4"/>
<feGaussianBlur stdDeviation="2"/>
<feComposite in2="hardAlpha" operator="out"/>
<feColorMatrix type="matrix" values="0 0 0 0 0 0 0 0 0 0 0 0 0 0 0 0 0 0 0.25 0"/>
<feBlend mode="normal" in2="BackgroundImageFix" result="effect1_dropShadow"/>
<feBlend mode="normal" in="SourceGraphic" in2="effect1_dropShadow" result="shape"/>
</filter>
<filter id="filter1_d" x="19" y="8" width="341" height="12" filterUnits="userSpaceOnUse" color-interpolation-filters="sRGB">
<feFlood flood-opacity="0" result="BackgroundImageFix"/>
<feColorMatrix in="SourceAlpha" type="matrix" values="0 0 0 0 0 0 0 0 0 0 0 0 0 0 0 0 0 0 127 0" result="hardAlpha"/>
<feOffset dy="4"/>
<feGaussianBlur stdDeviation="2"/>
<feComposite in2="hardAlpha" operator="out"/>
<feColorMatrix type="matrix" values="0 0 0 0 0 0 0 0 0 0 0 0 0 0 0 0 0 0 0.25 0"/>
<feBlend mode="normal" in2="BackgroundImageFix" result="effect1_dropShadow"/>
<feBlend mode="normal" in="SourceGraphic" in2="effect1_dropShadow" result="shape"/>
</filter>
</defs>
</svg>
