<svg width="30" height="30" viewBox="0 0 30 30" fill="none" xmlns="http://www.w3.org/2000/svg">
<path d="M15 13.3505C14.085 13.3505 13.35 14.0855 13.35 15.0005C13.35 15.9155 14.085 16.6505 15 16.6505C15.915 16.6505 16.65 15.9155 16.65 15.0005C16.65 14.0855 15.915 13.3505 15 13.3505ZM15 0.000488281C6.72 0.000488281 0 6.72049 0 15.0005C0 23.2805 6.72 30.0005 15 30.0005C23.28 30.0005 30 23.2805 30 15.0005C30 6.72049 23.28 0.000488281 15 0.000488281ZM18.285 18.2855L6 24.0005L11.715 11.7155L24 6.00049L18.285 18.2855Z" fill="#F6F6F6"/>
</svg>
