<svg width="30" height="30" viewBox="0 0 30 30" fill="none" xmlns="http://www.w3.org/2000/svg">
<path d="M18.4959 18.7388L18.6614 18.6619L18.7383 18.4964L24.4533 6.21139L25.0311 4.96934L23.7891 5.54714L11.5041 11.2621L11.3386 11.3391L11.2617 11.5046L5.54665 23.7896L4.96885 25.0316L6.2109 24.4538L18.4959 18.7388ZM13.85 15.0005C13.85 14.3616 14.3611 13.8505 15 13.8505C15.6389 13.8505 16.15 14.3616 16.15 15.0005C16.15 15.6393 15.6389 16.1505 15 16.1505C14.3611 16.1505 13.85 15.6393 13.85 15.0005ZM0.5 15.0005C0.5 6.99663 6.99614 0.500488 15 0.500488C23.0039 0.500488 29.5 6.99663 29.5 15.0005C29.5 23.0043 23.0039 29.5005 15 29.5005C6.99614 29.5005 0.5 23.0043 0.5 15.0005Z" fill="#F38948" stroke="#F6F6F6"/>
</svg>
