<svg width="36" height="42" viewBox="0 0 36 42" fill="none" xmlns="http://www.w3.org/2000/svg">
<path d="M33 5.74975L26.1 0L24.165 2.27905L31.065 8.0288L33 5.74975ZM11.82 2.27905L9.9 0L3 5.73486L4.935 8.0139L11.82 2.27905ZM18 3.18769C10.545 3.18769 4.5 9.19067 4.5 16.5938C4.5 23.997 10.53 30 18 30C25.455 30 31.5 23.997 31.5 16.5938C31.5 9.19067 25.455 3.18769 18 3.18769ZM18 27.0209C12.195 27.0209 7.5 22.3585 7.5 16.5938C7.5 10.8292 12.195 6.16683 18 6.16683C23.805 6.16683 28.5 10.8292 28.5 16.5938C28.5 22.3585 23.805 27.0209 18 27.0209ZM15.81 18.8729L12.615 15.7001L11.025 17.279L15.795 22.0159L24.795 13.0785L23.205 11.4995L15.81 18.8729Z" fill="#00A2C6"/>
<path d="M16.3521 34.1309L16.4224 33.7705H17.0552L17.0596 38.9033C17.0596 39.6562 16.9116 40.2041 16.6157 40.5469C16.2993 40.9102 15.7646 41.0918 15.0117 41.0918C14.4258 41.0918 13.9058 41.0127 13.4517 40.8545C13.3374 40.8164 13.2495 40.7812 13.188 40.749L13.4165 40.1294C13.4692 40.147 13.5469 40.1748 13.6494 40.2129C13.752 40.2539 13.875 40.2935 14.0186 40.3315C14.3818 40.4282 14.7144 40.4766 15.0161 40.4766C15.3208 40.4766 15.5552 40.4458 15.7192 40.3843C15.8833 40.3228 16.0107 40.2275 16.1016 40.0986C16.2539 39.8818 16.3301 39.4878 16.3301 38.9165V38.499C15.7705 38.8916 15.1787 39.0879 14.5547 39.0879C13.8252 39.0879 13.3389 38.8286 13.0957 38.3101C12.9551 38.0171 12.873 37.6465 12.8496 37.1982C12.8408 36.9932 12.8364 36.7676 12.8364 36.5215C12.8364 36.2725 12.8379 36.022 12.8408 35.77C12.8467 35.5181 12.8657 35.2852 12.8979 35.0713C12.9302 34.8574 12.98 34.6655 13.0474 34.4956C13.1177 34.3228 13.2173 34.1763 13.3462 34.0562C13.6128 33.8071 14.0229 33.6826 14.5767 33.6826C15.1333 33.6826 15.7251 33.832 16.3521 34.1309ZM16.3301 34.7373C15.8027 34.4736 15.293 34.3418 14.8008 34.3418C14.4434 34.3418 14.2075 34.3711 14.0933 34.4297C13.979 34.4883 13.8911 34.5645 13.8296 34.6582C13.771 34.752 13.7227 34.8809 13.6846 35.0449C13.6172 35.3525 13.5835 35.8594 13.5835 36.5654V36.6621C13.5835 37.3125 13.6641 37.7681 13.8252 38.0288C13.9863 38.2954 14.2808 38.4287 14.7085 38.4287H14.7744C15.1787 38.4287 15.5918 38.3174 16.0137 38.0947C16.1338 38.0332 16.2393 37.9702 16.3301 37.9058V34.7373ZM18.8262 36.3984C18.8262 35.7334 18.8599 35.269 18.9272 35.0054C18.9946 34.7417 19.0767 34.5337 19.1733 34.3813C19.2729 34.2261 19.4062 34.0972 19.5732 33.9946C19.9072 33.7866 20.4009 33.6826 21.0542 33.6826C21.9976 33.6826 22.604 33.9155 22.8735 34.3813C23.0347 34.6626 23.127 35.0596 23.1504 35.5723C23.1592 35.8154 23.1636 36.0835 23.1636 36.3765C23.1636 36.6694 23.1533 36.9434 23.1328 37.1982C23.1152 37.4502 23.0786 37.6772 23.0229 37.8794C22.9673 38.0815 22.8896 38.2588 22.79 38.4111C22.6904 38.5605 22.5586 38.6865 22.3945 38.7891C22.0723 38.9883 21.6021 39.0879 20.9839 39.0879C20.0581 39.0879 19.4502 38.8594 19.1602 38.4023C18.9814 38.1182 18.8774 37.7197 18.8481 37.207C18.8335 36.9609 18.8262 36.6914 18.8262 36.3984ZM20.0215 38.231C20.127 38.3101 20.2588 38.3701 20.417 38.4111C20.5781 38.4492 20.7964 38.4683 21.0718 38.4683C21.3501 38.4683 21.583 38.4287 21.7705 38.3496C21.9609 38.2705 22.103 38.1445 22.1968 37.9717C22.2935 37.7959 22.3535 37.5688 22.377 37.2905C22.4033 37.0122 22.4165 36.6885 22.4165 36.3193C22.4165 35.9502 22.4048 35.6426 22.3813 35.3965C22.3608 35.1504 22.3066 34.9468 22.2188 34.7856C22.043 34.4692 21.6519 34.311 21.0454 34.311C20.4038 34.311 19.9863 34.4692 19.793 34.7856C19.6963 34.9468 19.6348 35.1519 19.6084 35.4009C19.582 35.6499 19.5688 35.9209 19.5688 36.2139C19.5688 36.5068 19.5718 36.7559 19.5776 36.9609C19.5864 37.1631 19.6055 37.3462 19.6348 37.5103C19.667 37.6714 19.7124 37.812 19.771 37.9321C19.8325 38.0522 19.916 38.1519 20.0215 38.231Z" fill="#00A2C6"/>
</svg>
