<svg width="30" height="43" viewBox="0 0 30 43" fill="none" xmlns="http://www.w3.org/2000/svg">
<path d="M30 5.74975L23.1 0L21.165 2.27905L28.065 8.0288L30 5.74975ZM8.82 2.27905L6.9 0L0 5.73486L1.935 8.0139L8.82 2.27905ZM15 3.18769C7.545 3.18769 1.5 9.19067 1.5 16.5938C1.5 23.997 7.53 30 15 30C22.455 30 28.5 23.997 28.5 16.5938C28.5 9.19067 22.455 3.18769 15 3.18769ZM15 27.0209C9.195 27.0209 4.5 22.3585 4.5 16.5938C4.5 10.8292 9.195 6.16683 15 6.16683C20.805 6.16683 25.5 10.8292 25.5 16.5938C25.5 22.3585 20.805 27.0209 15 27.0209ZM12.81 18.8729L9.615 15.7001L8.025 17.279L12.795 22.0159L21.795 13.0785L20.205 11.4995L12.81 18.8729Z" fill="#FF0000"/>
<path d="M13.8521 35.1309L13.9224 34.7705H14.5552L14.5596 39.9033C14.5596 40.6562 14.4116 41.2041 14.1157 41.5469C13.7993 41.9102 13.2646 42.0918 12.5117 42.0918C11.9258 42.0918 11.4058 42.0127 10.9517 41.8545C10.8374 41.8164 10.7495 41.7812 10.688 41.749L10.9165 41.1294C10.9692 41.147 11.0469 41.1748 11.1494 41.2129C11.252 41.2539 11.375 41.2935 11.5186 41.3315C11.8818 41.4282 12.2144 41.4766 12.5161 41.4766C12.8208 41.4766 13.0552 41.4458 13.2192 41.3843C13.3833 41.3228 13.5107 41.2275 13.6016 41.0986C13.7539 40.8818 13.8301 40.4878 13.8301 39.9165V39.499C13.2705 39.8916 12.6787 40.0879 12.0547 40.0879C11.3252 40.0879 10.8389 39.8286 10.5957 39.3101C10.4551 39.0171 10.373 38.6465 10.3496 38.1982C10.3408 37.9932 10.3364 37.7676 10.3364 37.5215C10.3364 37.2725 10.3379 37.022 10.3408 36.77C10.3467 36.5181 10.3657 36.2852 10.3979 36.0713C10.4302 35.8574 10.48 35.6655 10.5474 35.4956C10.6177 35.3228 10.7173 35.1763 10.8462 35.0562C11.1128 34.8071 11.5229 34.6826 12.0767 34.6826C12.6333 34.6826 13.2251 34.832 13.8521 35.1309ZM13.8301 35.7373C13.3027 35.4736 12.793 35.3418 12.3008 35.3418C11.9434 35.3418 11.7075 35.3711 11.5933 35.4297C11.479 35.4883 11.3911 35.5645 11.3296 35.6582C11.271 35.752 11.2227 35.8809 11.1846 36.0449C11.1172 36.3525 11.0835 36.8594 11.0835 37.5654V37.6621C11.0835 38.3125 11.1641 38.7681 11.3252 39.0288C11.4863 39.2954 11.7808 39.4287 12.2085 39.4287H12.2744C12.6787 39.4287 13.0918 39.3174 13.5137 39.0947C13.6338 39.0332 13.7393 38.9702 13.8301 38.9058V35.7373ZM16.3262 37.3984C16.3262 36.7334 16.3599 36.269 16.4272 36.0054C16.4946 35.7417 16.5767 35.5337 16.6733 35.3813C16.7729 35.2261 16.9062 35.0972 17.0732 34.9946C17.4072 34.7866 17.9009 34.6826 18.5542 34.6826C19.4976 34.6826 20.104 34.9155 20.3735 35.3813C20.5347 35.6626 20.627 36.0596 20.6504 36.5723C20.6592 36.8154 20.6636 37.0835 20.6636 37.3765C20.6636 37.6694 20.6533 37.9434 20.6328 38.1982C20.6152 38.4502 20.5786 38.6772 20.5229 38.8794C20.4673 39.0815 20.3896 39.2588 20.29 39.4111C20.1904 39.5605 20.0586 39.6865 19.8945 39.7891C19.5723 39.9883 19.1021 40.0879 18.4839 40.0879C17.5581 40.0879 16.9502 39.8594 16.6602 39.4023C16.4814 39.1182 16.3774 38.7197 16.3481 38.207C16.3335 37.9609 16.3262 37.6914 16.3262 37.3984ZM17.5215 39.231C17.627 39.3101 17.7588 39.3701 17.917 39.4111C18.0781 39.4492 18.2964 39.4683 18.5718 39.4683C18.8501 39.4683 19.083 39.4287 19.2705 39.3496C19.4609 39.2705 19.603 39.1445 19.6968 38.9717C19.7935 38.7959 19.8535 38.5688 19.877 38.2905C19.9033 38.0122 19.9165 37.6885 19.9165 37.3193C19.9165 36.9502 19.9048 36.6426 19.8813 36.3965C19.8608 36.1504 19.8066 35.9468 19.7188 35.7856C19.543 35.4692 19.1519 35.311 18.5454 35.311C17.9038 35.311 17.4863 35.4692 17.293 35.7856C17.1963 35.9468 17.1348 36.1519 17.1084 36.4009C17.082 36.6499 17.0688 36.9209 17.0688 37.2139C17.0688 37.5068 17.0718 37.7559 17.0776 37.9609C17.0864 38.1631 17.1055 38.3462 17.1348 38.5103C17.167 38.6714 17.2124 38.812 17.271 38.9321C17.3325 39.0522 17.416 39.1519 17.5215 39.231Z" fill="#FF0000"/>
</svg>
