<svg width="30" height="42" viewBox="0 0 30 42" fill="none" xmlns="http://www.w3.org/2000/svg">
<path d="M30 5.74975L23.1 0L21.165 2.27905L28.065 8.0288L30 5.74975ZM8.82 2.27905L6.9 0L0 5.73486L1.935 8.0139L8.82 2.27905ZM15 3.18769C7.545 3.18769 1.5 9.19067 1.5 16.5938C1.5 23.997 7.53 30 15 30C22.455 30 28.5 23.997 28.5 16.5938C28.5 9.19067 22.455 3.18769 15 3.18769ZM15 27.0209C9.195 27.0209 4.5 22.3585 4.5 16.5938C4.5 10.8292 9.195 6.16683 15 6.16683C20.805 6.16683 25.5 10.8292 25.5 16.5938C25.5 22.3585 20.805 27.0209 15 27.0209ZM12.81 18.8729L9.615 15.7001L8.025 17.279L12.795 22.0159L21.795 13.0785L20.205 11.4995L12.81 18.8729Z" fill="#008325"/>
<path d="M12.8521 34.1309L12.9224 33.7705H13.5552L13.5596 38.9033C13.5596 39.6562 13.4116 40.2041 13.1157 40.5469C12.7993 40.9102 12.2646 41.0918 11.5117 41.0918C10.9258 41.0918 10.4058 41.0127 9.95166 40.8545C9.8374 40.8164 9.74951 40.7812 9.68799 40.749L9.9165 40.1294C9.96924 40.147 10.0469 40.1748 10.1494 40.2129C10.252 40.2539 10.375 40.2935 10.5186 40.3315C10.8818 40.4282 11.2144 40.4766 11.5161 40.4766C11.8208 40.4766 12.0552 40.4458 12.2192 40.3843C12.3833 40.3228 12.5107 40.2275 12.6016 40.0986C12.7539 39.8818 12.8301 39.4878 12.8301 38.9165V38.499C12.2705 38.8916 11.6787 39.0879 11.0547 39.0879C10.3252 39.0879 9.83887 38.8286 9.5957 38.3101C9.45508 38.0171 9.37305 37.6465 9.34961 37.1982C9.34082 36.9932 9.33643 36.7676 9.33643 36.5215C9.33643 36.2725 9.33789 36.022 9.34082 35.77C9.34668 35.5181 9.36572 35.2852 9.39795 35.0713C9.43018 34.8574 9.47998 34.6655 9.54736 34.4956C9.61768 34.3228 9.71729 34.1763 9.84619 34.0562C10.1128 33.8071 10.5229 33.6826 11.0767 33.6826C11.6333 33.6826 12.2251 33.832 12.8521 34.1309ZM12.8301 34.7373C12.3027 34.4736 11.793 34.3418 11.3008 34.3418C10.9434 34.3418 10.7075 34.3711 10.5933 34.4297C10.479 34.4883 10.3911 34.5645 10.3296 34.6582C10.271 34.752 10.2227 34.8809 10.1846 35.0449C10.1172 35.3525 10.0835 35.8594 10.0835 36.5654V36.6621C10.0835 37.3125 10.1641 37.7681 10.3252 38.0288C10.4863 38.2954 10.7808 38.4287 11.2085 38.4287H11.2744C11.6787 38.4287 12.0918 38.3174 12.5137 38.0947C12.6338 38.0332 12.7393 37.9702 12.8301 37.9058V34.7373ZM15.3262 36.3984C15.3262 35.7334 15.3599 35.269 15.4272 35.0054C15.4946 34.7417 15.5767 34.5337 15.6733 34.3813C15.7729 34.2261 15.9062 34.0972 16.0732 33.9946C16.4072 33.7866 16.9009 33.6826 17.5542 33.6826C18.4976 33.6826 19.104 33.9155 19.3735 34.3813C19.5347 34.6626 19.627 35.0596 19.6504 35.5723C19.6592 35.8154 19.6636 36.0835 19.6636 36.3765C19.6636 36.6694 19.6533 36.9434 19.6328 37.1982C19.6152 37.4502 19.5786 37.6772 19.5229 37.8794C19.4673 38.0815 19.3896 38.2588 19.29 38.4111C19.1904 38.5605 19.0586 38.6865 18.8945 38.7891C18.5723 38.9883 18.1021 39.0879 17.4839 39.0879C16.5581 39.0879 15.9502 38.8594 15.6602 38.4023C15.4814 38.1182 15.3774 37.7197 15.3481 37.207C15.3335 36.9609 15.3262 36.6914 15.3262 36.3984ZM16.5215 38.231C16.627 38.3101 16.7588 38.3701 16.917 38.4111C17.0781 38.4492 17.2964 38.4683 17.5718 38.4683C17.8501 38.4683 18.083 38.4287 18.2705 38.3496C18.4609 38.2705 18.603 38.1445 18.6968 37.9717C18.7935 37.7959 18.8535 37.5688 18.877 37.2905C18.9033 37.0122 18.9165 36.6885 18.9165 36.3193C18.9165 35.9502 18.9048 35.6426 18.8813 35.3965C18.8608 35.1504 18.8066 34.9468 18.7188 34.7856C18.543 34.4692 18.1519 34.311 17.5454 34.311C16.9038 34.311 16.4863 34.4692 16.293 34.7856C16.1963 34.9468 16.1348 35.1519 16.1084 35.4009C16.082 35.6499 16.0688 35.9209 16.0688 36.2139C16.0688 36.5068 16.0718 36.7559 16.0776 36.9609C16.0864 37.1631 16.1055 37.3462 16.1348 37.5103C16.167 37.6714 16.2124 37.812 16.271 37.9321C16.3325 38.0522 16.416 38.1519 16.5215 38.231Z" fill="#008325"/>
</svg>
