<svg width="31" height="26" viewBox="0 0 31 26" fill="none" xmlns="http://www.w3.org/2000/svg">
<path d="M15.5 12.056H16V11.556V8.66715V8.16715H15.5H2.81818H2.31818V8.66715V11.556V12.056H2.81818H15.5ZM15.5 6.27827H16V5.77827V2.88938V2.38938H15.5H2.81818H2.31818V2.88938V5.77827V6.27827H2.81818H15.5ZM2.81818 0.500488H28.1818C29.4441 0.500488 30.5 1.56488 30.5 2.88938V23.1116C30.5 24.4361 29.4441 25.5005 28.1818 25.5005H2.81818C1.55593 25.5005 0.5 24.4361 0.5 23.1116V2.88938C0.5 1.56488 1.55593 0.500488 2.81818 0.500488Z" fill="#212121" stroke="#F45D00"/>
</svg>
