<svg width="17" height="32" viewBox="0 0 17 32" fill="none" xmlns="http://www.w3.org/2000/svg">
<path d="M14.1667 32.0005C12.6083 32.0005 11.3333 30.6914 11.3333 29.0914C11.3333 28.8296 11.3617 28.5823 11.4325 28.3496L6.40333 23.1714C6.17667 23.2441 5.92167 23.2732 5.66667 23.2732C4.10833 23.2732 2.83333 21.9641 2.83333 20.3641C2.83333 18.7641 4.10833 17.455 5.66667 17.455C5.92167 17.455 6.17667 17.4841 6.40333 17.5569L10.0158 13.8478C9.945 13.615 9.91667 13.3532 9.91667 13.0914C9.91667 12.8296 9.945 12.5678 10.0158 12.335L3.55583 5.71685C3.32917 5.78958 3.08833 5.81867 2.83333 5.81867C1.275 5.81867 1.71025e-06 4.50958 1.78019e-06 2.90958C1.85013e-06 1.30958 1.275 0.000487594 2.83333 0.000487662C4.39167 0.00048773 5.66667 1.30958 5.66667 2.90958C5.66667 3.1714 5.63834 3.41867 5.5675 3.6514L12.0133 10.2841C12.24 10.2114 12.495 10.1823 12.75 10.1823C14.3083 10.1823 15.5833 11.4914 15.5833 13.0914C15.5833 14.6914 14.3083 16.0005 12.75 16.0005C12.495 16.0005 12.24 15.9714 12.0133 15.8987L8.40083 19.6078C8.47167 19.8405 8.5 20.1023 8.5 20.3641C8.5 20.6259 8.47167 20.8878 8.40083 21.1205L13.4442 26.2841C13.6708 26.2114 13.9117 26.1823 14.1667 26.1823C15.725 26.1823 17 27.4914 17 29.0914C17 30.6914 15.725 32.0005 14.1667 32.0005Z" fill="#F45D00"/>
</svg>
