<svg width="17" height="32" viewBox="0 0 17 32" fill="none" xmlns="http://www.w3.org/2000/svg">
<path d="M11.9108 28.4952L11.9967 28.2129L11.7912 28.0012L6.76201 22.823L6.54591 22.6005L6.25058 22.6953C6.08751 22.7476 5.88724 22.7732 5.66667 22.7732C4.39683 22.7732 3.33333 21.7005 3.33333 20.3641C3.33333 19.0277 4.39683 17.955 5.66667 17.955C5.88724 17.955 6.08751 17.9806 6.25058 18.0329L6.54545 18.1276L6.76152 17.9057L10.374 14.1966L10.5802 13.9849L10.4942 13.7022C10.4419 13.5304 10.4167 13.3207 10.4167 13.0914C10.4167 12.8621 10.4419 12.6524 10.4942 12.4806L10.5803 12.1975L10.3736 11.9858L3.91364 5.3676L3.69759 5.14626L3.40308 5.24076C3.23791 5.29375 3.05097 5.31867 2.83333 5.31867C1.5635 5.31867 0.500002 4.24596 0.500002 2.90958C0.500002 1.5732 1.5635 0.500488 2.83333 0.500488C4.10317 0.500488 5.16667 1.5732 5.16667 2.90958C5.16667 3.13609 5.14206 3.33204 5.08917 3.50581L5.00322 3.78819L5.20893 3.99986L11.6548 10.6326L11.8709 10.8549L12.1661 10.7602C12.3292 10.7079 12.5294 10.6823 12.75 10.6823C14.0198 10.6823 15.0833 11.755 15.0833 13.0914C15.0833 14.4278 14.0198 15.5005 12.75 15.5005C12.5294 15.5005 12.3292 15.4749 12.1661 15.4226L11.8712 15.328L11.6551 15.5498L8.04265 19.2589L7.83645 19.4706L7.9225 19.7533C7.97478 19.9251 8 20.1348 8 20.3641C8 20.5934 7.97478 20.8031 7.9225 20.9749L7.83631 21.2581L8.04314 21.4699L13.0865 26.6335L13.3025 26.8547L13.5969 26.7602C13.7621 26.7072 13.949 26.6823 14.1667 26.6823C15.4365 26.6823 16.5 27.755 16.5 29.0914C16.5 30.4278 15.4365 31.5005 14.1667 31.5005C12.8968 31.5005 11.8333 30.4278 11.8333 29.0914C11.8333 28.8649 11.8579 28.6689 11.9108 28.4952Z" fill="#F38948" stroke="#F6F6F6"/>
</svg>
